<svg width="538" height="109" viewBox="0 0 538 109" fill="none" xmlns="http://www.w3.org/2000/svg">
<path d="M518.115 54.8445C518.556 53.1564 518.772 51.4371 518.757 49.715C518.73 46.5198 517.903 43.3623 516.323 40.4228C514.743 37.4833 512.441 34.8194 509.549 32.5831C506.656 30.3468 503.23 28.582 499.465 27.3894C495.701 26.1968 491.672 25.5997 487.608 25.6323C485.69 25.6493 483.777 25.804 481.893 26.0944C481.104 25.9865 480.306 26.1071 479.485 26.0403C476.527 21.0809 471.808 16.9035 465.895 14.0098C459.981 11.116 453.125 9.62894 446.15 9.72706L434.735 9.8187C429.957 9.8388 425.228 10.5998 420.818 12.0582C416.409 13.5166 412.405 15.6437 409.037 18.3177C405.669 20.9916 403.003 24.1598 401.19 27.6409C399.378 31.122 398.456 34.8475 398.477 38.604C398.479 38.8161 398.479 38.9222 398.481 39.1344C390.941 40.2433 384.196 43.5391 379.585 48.3678C374.974 53.1965 372.835 59.2052 373.59 65.2014C374.346 71.1976 377.942 76.7432 383.665 80.7375C389.388 84.7318 396.819 86.883 404.484 86.7642L516.558 85.8644C521.789 86.0097 526.887 84.5148 530.729 81.7088C534.572 78.9028 536.845 75.0155 537.049 70.9021C537.252 66.7886 535.37 62.7859 531.815 59.7745C528.26 56.7632 523.325 54.9899 518.094 54.8447L518.115 54.8445Z" fill="#407BFF"/>
<path opacity="0.5" d="M518.115 54.8445C518.556 53.1564 518.772 51.4371 518.757 49.715C518.73 46.5198 517.903 43.3623 516.323 40.4228C514.743 37.4833 512.441 34.8194 509.549 32.5831C506.656 30.3468 503.23 28.582 499.465 27.3894C495.701 26.1968 491.672 25.5997 487.608 25.6323C485.69 25.6493 483.777 25.804 481.893 26.0944C481.104 25.9865 480.306 26.1071 479.485 26.0403C476.527 21.0809 471.808 16.9035 465.895 14.0098C459.981 11.116 453.125 9.62894 446.15 9.72706L434.735 9.8187C429.957 9.8388 425.228 10.5998 420.818 12.0582C416.409 13.5166 412.405 15.6437 409.037 18.3177C405.669 20.9916 403.003 24.1598 401.19 27.6409C399.378 31.122 398.456 34.8475 398.477 38.604C398.479 38.8161 398.479 38.9222 398.481 39.1344C390.941 40.2433 384.196 43.5391 379.585 48.3678C374.974 53.1965 372.835 59.2052 373.59 65.2014C374.346 71.1976 377.942 76.7432 383.665 80.7375C389.388 84.7318 396.819 86.883 404.484 86.7642L516.558 85.8644C521.789 86.0097 526.887 84.5148 530.729 81.7088C534.572 78.9028 536.845 75.0155 537.049 70.9021C537.252 66.7886 535.37 62.7859 531.815 59.7745C528.26 56.7632 523.325 54.9899 518.094 54.8447L518.115 54.8445Z" fill="white"/>
<path opacity="0.4" d="M518.115 54.8491C518.557 53.1609 518.772 51.4414 518.757 49.7191C518.73 46.5237 517.903 43.3659 516.324 40.4262C514.744 37.4864 512.442 34.8222 509.55 32.5858C506.657 30.3493 503.231 28.5843 499.466 27.3916C495.702 26.1989 491.673 25.6018 487.609 25.6344C485.691 25.6514 483.778 25.8061 481.895 26.0965C481.105 25.9886 480.307 26.1093 479.487 26.0424C476.529 21.0826 471.81 16.9049 465.896 14.0109C459.983 11.1169 453.127 9.62968 446.152 9.72781C441.374 9.74792 436.645 10.509 432.236 11.9675C427.826 13.4261 423.823 15.5533 420.455 18.2275C417.087 20.9017 414.42 24.0702 412.608 27.5516C410.796 31.0329 409.874 34.7588 409.895 38.5156C409.897 38.7278 409.897 38.8339 409.899 39.046C402.359 40.155 395.614 43.4511 391.004 48.2803C386.393 53.1094 384.253 59.1186 385.009 65.1153C385.765 71.1121 389.361 76.6581 395.083 80.6528C400.806 84.6474 408.237 86.7988 415.902 86.68L516.559 85.8717C521.79 86.017 526.887 84.522 530.73 81.7158C534.572 78.9095 536.845 75.0219 537.049 70.9081C537.253 66.7942 535.37 62.7912 531.815 59.7796C528.261 56.768 523.325 54.9945 518.094 54.8493L518.115 54.8491Z" fill="white"/>
<path opacity="0.4" d="M518.115 54.8491C518.557 53.1609 518.772 51.4414 518.757 49.7191C518.73 46.5237 517.903 43.3659 516.324 40.4262C514.744 37.4864 512.442 34.8222 509.55 32.5858C506.657 30.3493 503.231 28.5843 499.466 27.3916C495.702 26.1989 491.673 25.6018 487.609 25.6344C485.691 25.6514 483.778 25.8061 481.895 26.0965C481.105 25.9886 480.307 26.1093 479.487 26.0424C476.529 21.0826 471.81 16.9049 465.896 14.0109C459.983 11.1169 453.127 9.62968 446.152 9.72781C441.374 9.74792 436.645 10.509 432.236 11.9675C427.826 13.4261 423.823 15.5533 420.455 18.2275C417.087 20.9017 414.42 24.0702 412.608 27.5516C410.796 31.0329 409.874 34.7588 409.895 38.5156C409.897 38.7278 409.897 38.8339 409.899 39.046C402.359 40.155 395.614 43.4511 391.004 48.2803C386.393 53.1094 384.253 59.1186 385.009 65.1153C385.765 71.1121 389.361 76.6581 395.083 80.6528C400.806 84.6474 408.237 86.7988 415.902 86.68L516.559 85.8717C521.79 86.017 526.887 84.522 530.73 81.7158C534.572 78.9095 536.845 75.0219 537.049 70.9081C537.253 66.7942 535.37 62.7912 531.815 59.7796C528.261 56.768 523.325 54.9945 518.094 54.8493L518.115 54.8491Z" fill="white"/>
<path d="M9.12 74C7.56 74 6.36 73.58 5.52 72.74C4.68 71.9 4.26 70.7 4.26 69.14V36.56C4.26 35 4.68 33.8 5.52 32.96C6.36 32.12 7.56 31.7 9.12 31.7H30.06C31.26 31.7 32.16 32.02 32.76 32.66C33.4 33.26 33.72 34.14 33.72 35.3C33.72 36.5 33.4 37.42 32.76 38.06C32.16 38.66 31.26 38.96 30.06 38.96H13.14V48.86H28.68C29.92 48.86 30.84 49.18 31.44 49.82C32.08 50.42 32.4 51.32 32.4 52.52C32.4 53.72 32.08 54.64 31.44 55.28C30.84 55.88 29.92 56.18 28.68 56.18H13.14V66.74H30.06C31.26 66.74 32.16 67.06 32.76 67.7C33.4 68.3 33.72 69.18 33.72 70.34C33.72 71.54 33.4 72.46 32.76 73.1C32.16 73.7 31.26 74 30.06 74H9.12ZM50.0123 74.66C48.2523 74.66 46.4323 74.5 44.5523 74.18C42.7123 73.86 41.0323 73.32 39.5123 72.56C38.7123 72.16 38.1323 71.66 37.7723 71.06C37.4523 70.42 37.3123 69.78 37.3523 69.14C37.3923 68.5 37.5923 67.92 37.9523 67.4C38.3523 66.88 38.8523 66.54 39.4523 66.38C40.0923 66.18 40.7923 66.24 41.5523 66.56C43.1923 67.24 44.6923 67.72 46.0523 68C47.4123 68.28 48.7523 68.42 50.0723 68.42C51.7923 68.42 53.0323 68.16 53.7923 67.64C54.5923 67.08 54.9923 66.36 54.9923 65.48C54.9923 64.68 54.7323 64.08 54.2123 63.68C53.6923 63.28 52.9323 63 51.9323 62.84L45.6323 61.7C43.1523 61.26 41.2323 60.36 39.8723 59C38.5523 57.6 37.8923 55.82 37.8923 53.66C37.8923 51.66 38.4523 49.94 39.5723 48.5C40.6923 47.02 42.2323 45.9 44.1923 45.14C46.1923 44.34 48.4523 43.94 50.9723 43.94C52.7723 43.94 54.4323 44.1 55.9523 44.42C57.4723 44.74 58.9323 45.26 60.3323 45.98C61.0523 46.34 61.5523 46.82 61.8323 47.42C62.1523 48.02 62.2523 48.64 62.1323 49.28C62.0523 49.92 61.8123 50.5 61.4123 51.02C61.0123 51.54 60.4923 51.88 59.8523 52.04C59.2523 52.2 58.5523 52.12 57.7523 51.8C56.4723 51.2 55.2923 50.78 54.2123 50.54C53.1323 50.26 52.0923 50.12 51.0923 50.12C49.2923 50.12 47.9923 50.42 47.1923 51.02C46.3923 51.58 45.9923 52.3 45.9923 53.18C45.9923 53.86 46.2123 54.44 46.6523 54.92C47.1323 55.36 47.8523 55.66 48.8123 55.82L55.1123 56.96C57.7123 57.4 59.6923 58.28 61.0523 59.6C62.4123 60.88 63.0923 62.64 63.0923 64.88C63.0923 67.92 61.8923 70.32 59.4923 72.08C57.1323 73.8 53.9723 74.66 50.0123 74.66ZM81.7036 74.66C78.5036 74.66 75.7036 74.04 73.3036 72.8C70.9436 71.52 69.1236 69.72 67.8436 67.4C66.5636 65.08 65.9236 62.34 65.9236 59.18C65.9236 56.82 66.2836 54.7 67.0036 52.82C67.7236 50.94 68.7636 49.34 70.1236 48.02C71.5236 46.7 73.2036 45.7 75.1636 45.02C77.1236 44.3 79.3036 43.94 81.7036 43.94C82.9436 43.94 84.2636 44.1 85.6636 44.42C87.0636 44.7 88.4436 45.2 89.8036 45.92C90.6036 46.28 91.1436 46.8 91.4236 47.48C91.7436 48.12 91.8636 48.8 91.7836 49.52C91.7036 50.2 91.4436 50.82 91.0036 51.38C90.6036 51.9 90.0836 52.26 89.4436 52.46C88.8036 52.62 88.0836 52.5 87.2836 52.1C86.5236 51.66 85.7236 51.34 84.8836 51.14C84.0836 50.94 83.3236 50.84 82.6036 50.84C81.4036 50.84 80.3436 51.04 79.4236 51.44C78.5036 51.8 77.7236 52.34 77.0836 53.06C76.4836 53.74 76.0036 54.6 75.6436 55.64C75.3236 56.68 75.1636 57.88 75.1636 59.24C75.1636 61.88 75.8036 63.96 77.0836 65.48C78.4036 66.96 80.2436 67.7 82.6036 67.7C83.3236 67.7 84.0836 67.62 84.8836 67.46C85.6836 67.26 86.4836 66.94 87.2836 66.5C88.0836 66.1 88.8036 66 89.4436 66.2C90.0836 66.4 90.5836 66.78 90.9436 67.34C91.3436 67.86 91.5636 68.48 91.6036 69.2C91.6836 69.88 91.5636 70.56 91.2436 71.24C90.9636 71.88 90.4436 72.38 89.6836 72.74C88.3236 73.42 86.9636 73.9 85.6036 74.18C84.2436 74.5 82.9436 74.66 81.7036 74.66ZM108.69 74.66C105.53 74.66 102.77 74.04 100.41 72.8C98.09 71.56 96.29 69.78 95.01 67.46C93.73 65.14 93.09 62.4 93.09 59.24C93.09 56.88 93.45 54.76 94.17 52.88C94.89 51 95.93 49.4 97.29 48.08C98.69 46.72 100.35 45.7 102.27 45.02C104.19 44.3 106.33 43.94 108.69 43.94C111.85 43.94 114.59 44.56 116.91 45.8C119.27 47.04 121.09 48.8 122.37 51.08C123.69 53.36 124.35 56.08 124.35 59.24C124.35 61.64 123.97 63.78 123.21 65.66C122.49 67.54 121.45 69.16 120.09 70.52C118.73 71.88 117.07 72.92 115.11 73.64C113.19 74.32 111.05 74.66 108.69 74.66ZM108.69 67.88C110.01 67.88 111.15 67.56 112.11 66.92C113.07 66.28 113.83 65.34 114.39 64.1C114.95 62.82 115.23 61.2 115.23 59.24C115.23 56.32 114.63 54.18 113.43 52.82C112.23 51.42 110.65 50.72 108.69 50.72C107.41 50.72 106.27 51.02 105.27 51.62C104.31 52.22 103.55 53.16 102.99 54.44C102.47 55.68 102.21 57.28 102.21 59.24C102.21 62.16 102.81 64.34 104.01 65.78C105.21 67.18 106.77 67.88 108.69 67.88ZM139.582 74.66C136.022 74.66 133.362 73.68 131.602 71.72C129.842 69.72 128.962 66.76 128.962 62.84V35.78C128.962 34.26 129.342 33.12 130.102 32.36C130.902 31.56 132.042 31.16 133.522 31.16C134.962 31.16 136.062 31.56 136.822 32.36C137.622 33.12 138.022 34.26 138.022 35.78V62.48C138.022 64.12 138.362 65.34 139.042 66.14C139.762 66.9 140.702 67.28 141.862 67.28C142.182 67.28 142.482 67.26 142.762 67.22C143.042 67.18 143.342 67.16 143.662 67.16C144.302 67.08 144.742 67.28 144.982 67.76C145.262 68.2 145.402 69.1 145.402 70.46C145.402 71.66 145.162 72.58 144.682 73.22C144.202 73.82 143.462 74.22 142.462 74.42C142.062 74.46 141.602 74.5 141.082 74.54C140.562 74.62 140.062 74.66 139.582 74.66ZM158.003 74.66C155.843 74.66 153.903 74.24 152.183 73.4C150.463 72.56 149.123 71.42 148.163 69.98C147.203 68.54 146.723 66.92 146.723 65.12C146.723 62.96 147.283 61.26 148.403 60.02C149.523 58.74 151.343 57.84 153.863 57.32C156.383 56.76 159.723 56.48 163.883 56.48H167.063V61.16H163.943C161.903 61.16 160.243 61.28 158.963 61.52C157.723 61.72 156.823 62.08 156.263 62.6C155.743 63.12 155.483 63.84 155.483 64.76C155.483 65.88 155.863 66.8 156.623 67.52C157.423 68.24 158.563 68.6 160.043 68.6C161.203 68.6 162.223 68.34 163.103 67.82C164.023 67.26 164.743 66.52 165.263 65.6C165.783 64.64 166.043 63.56 166.043 62.36V55.46C166.043 53.7 165.643 52.46 164.843 51.74C164.043 50.98 162.683 50.6 160.763 50.6C159.683 50.6 158.503 50.74 157.223 51.02C155.983 51.26 154.603 51.68 153.083 52.28C152.203 52.68 151.423 52.78 150.743 52.58C150.063 52.34 149.543 51.94 149.183 51.38C148.823 50.78 148.643 50.14 148.643 49.46C148.643 48.74 148.843 48.06 149.243 47.42C149.643 46.74 150.303 46.24 151.223 45.92C153.103 45.16 154.863 44.64 156.503 44.36C158.183 44.08 159.723 43.94 161.123 43.94C164.203 43.94 166.723 44.4 168.683 45.32C170.683 46.2 172.183 47.58 173.183 49.46C174.183 51.3 174.683 53.68 174.683 56.6V69.92C174.683 71.4 174.323 72.54 173.603 73.34C172.883 74.14 171.843 74.54 170.483 74.54C169.123 74.54 168.063 74.14 167.303 73.34C166.583 72.54 166.223 71.4 166.223 69.92V67.7L166.643 68.06C166.403 69.42 165.883 70.6 165.083 71.6C164.323 72.56 163.343 73.32 162.143 73.88C160.943 74.4 159.563 74.66 158.003 74.66ZM207.859 74.66C205.299 74.66 203.039 74.04 201.079 72.8C199.159 71.56 197.659 69.78 196.579 67.46C195.499 65.14 194.959 62.4 194.959 59.24C194.959 56.08 195.499 53.36 196.579 51.08C197.659 48.8 199.159 47.04 201.079 45.8C203.039 44.56 205.299 43.94 207.859 43.94C210.179 43.94 212.219 44.5 213.979 45.62C215.779 46.74 216.999 48.2 217.639 50H216.979V35.78C216.979 34.26 217.359 33.12 218.119 32.36C218.879 31.56 219.999 31.16 221.479 31.16C222.919 31.16 224.039 31.56 224.839 32.36C225.639 33.12 226.039 34.26 226.039 35.78V69.92C226.039 71.4 225.639 72.54 224.839 73.34C224.079 74.14 222.979 74.54 221.539 74.54C220.099 74.54 218.979 74.14 218.179 73.34C217.419 72.54 217.039 71.4 217.039 69.92V65.84L217.699 68.18C217.139 70.14 215.939 71.72 214.099 72.92C212.299 74.08 210.219 74.66 207.859 74.66ZM210.559 67.88C211.879 67.88 213.019 67.56 213.979 66.92C214.939 66.28 215.699 65.34 216.259 64.1C216.819 62.82 217.099 61.2 217.099 59.24C217.099 56.32 216.499 54.18 215.299 52.82C214.099 51.42 212.519 50.72 210.559 50.72C209.279 50.72 208.139 51.02 207.139 51.62C206.179 52.22 205.419 53.16 204.859 54.44C204.339 55.68 204.079 57.28 204.079 59.24C204.079 62.16 204.679 64.34 205.879 65.78C207.079 67.18 208.639 67.88 210.559 67.88ZM242.08 74.66C239.92 74.66 237.98 74.24 236.26 73.4C234.54 72.56 233.2 71.42 232.24 69.98C231.28 68.54 230.8 66.92 230.8 65.12C230.8 62.96 231.36 61.26 232.48 60.02C233.6 58.74 235.42 57.84 237.94 57.32C240.46 56.76 243.8 56.48 247.96 56.48H251.14V61.16H248.02C245.98 61.16 244.32 61.28 243.04 61.52C241.8 61.72 240.9 62.08 240.34 62.6C239.82 63.12 239.56 63.84 239.56 64.76C239.56 65.88 239.94 66.8 240.7 67.52C241.5 68.24 242.64 68.6 244.12 68.6C245.28 68.6 246.3 68.34 247.18 67.82C248.1 67.26 248.82 66.52 249.34 65.6C249.86 64.64 250.12 63.56 250.12 62.36V55.46C250.12 53.7 249.72 52.46 248.92 51.74C248.12 50.98 246.76 50.6 244.84 50.6C243.76 50.6 242.58 50.74 241.3 51.02C240.06 51.26 238.68 51.68 237.16 52.28C236.28 52.68 235.5 52.78 234.82 52.58C234.14 52.34 233.62 51.94 233.26 51.38C232.9 50.78 232.72 50.14 232.72 49.46C232.72 48.74 232.92 48.06 233.32 47.42C233.72 46.74 234.38 46.24 235.3 45.92C237.18 45.16 238.94 44.64 240.58 44.36C242.26 44.08 243.8 43.94 245.2 43.94C248.28 43.94 250.8 44.4 252.76 45.32C254.76 46.2 256.26 47.58 257.26 49.46C258.26 51.3 258.76 53.68 258.76 56.6V69.92C258.76 71.4 258.4 72.54 257.68 73.34C256.96 74.14 255.92 74.54 254.56 74.54C253.2 74.54 252.14 74.14 251.38 73.34C250.66 72.54 250.3 71.4 250.3 69.92V67.7L250.72 68.06C250.48 69.42 249.96 70.6 249.16 71.6C248.4 72.56 247.42 73.32 246.22 73.88C245.02 74.4 243.64 74.66 242.08 74.66ZM285.576 74.54C284.176 74.54 283.096 74.16 282.336 73.4C281.616 72.6 281.256 71.48 281.256 70.04V35.84C281.256 34.32 281.616 33.16 282.336 32.36C283.096 31.56 284.096 31.16 285.336 31.16C286.416 31.16 287.236 31.38 287.796 31.82C288.396 32.22 289.076 32.9 289.836 33.86L310.896 60.68H309.276V35.6C309.276 34.2 309.636 33.12 310.356 32.36C311.116 31.56 312.196 31.16 313.596 31.16C314.996 31.16 316.056 31.56 316.776 32.36C317.536 33.12 317.916 34.2 317.916 35.6V70.22C317.916 71.54 317.576 72.6 316.896 73.4C316.216 74.16 315.296 74.54 314.136 74.54C313.016 74.54 312.116 74.32 311.436 73.88C310.796 73.44 310.096 72.74 309.336 71.78L288.336 44.96H289.896V70.04C289.896 71.48 289.536 72.6 288.816 73.4C288.096 74.16 287.016 74.54 285.576 74.54ZM335.612 74.66C333.132 74.66 331.072 74.2 329.432 73.28C327.792 72.36 326.572 70.98 325.772 69.14C325.012 67.26 324.632 64.94 324.632 62.18V48.62C324.632 47.1 325.012 45.96 325.772 45.2C326.572 44.44 327.692 44.06 329.132 44.06C330.572 44.06 331.692 44.44 332.492 45.2C333.292 45.96 333.692 47.1 333.692 48.62V62.42C333.692 64.18 334.052 65.5 334.772 66.38C335.492 67.22 336.632 67.64 338.192 67.64C339.912 67.64 341.312 67.04 342.392 65.84C343.512 64.6 344.072 62.98 344.072 60.98V48.62C344.072 47.1 344.452 45.96 345.212 45.2C346.012 44.44 347.132 44.06 348.572 44.06C350.052 44.06 351.172 44.44 351.932 45.2C352.732 45.96 353.132 47.1 353.132 48.62V69.92C353.132 73 351.672 74.54 348.752 74.54C347.312 74.54 346.212 74.14 345.452 73.34C344.692 72.54 344.312 71.4 344.312 69.92V65.9L345.212 68.24C344.332 70.28 343.072 71.86 341.432 72.98C339.792 74.1 337.852 74.66 335.612 74.66ZM371.723 74.54C370.563 74.54 369.543 74.24 368.663 73.64C367.783 73 367.083 72.06 366.563 70.82L357.503 49.94C357.063 48.9 356.903 47.94 357.023 47.06C357.143 46.14 357.563 45.42 358.283 44.9C359.043 44.34 360.083 44.06 361.403 44.06C362.483 44.06 363.363 44.32 364.043 44.84C364.723 45.32 365.323 46.26 365.843 47.66L372.923 65.66H371.003L378.383 47.6C378.943 46.24 379.563 45.32 380.243 44.84C380.923 44.32 381.863 44.06 383.063 44.06C384.103 44.06 384.923 44.34 385.523 44.9C386.163 45.42 386.543 46.12 386.663 47C386.823 47.88 386.663 48.84 386.183 49.88L376.943 70.82C376.423 72.1 375.723 73.04 374.843 73.64C374.003 74.24 372.963 74.54 371.723 74.54ZM404.99 74.66C401.51 74.66 398.51 74.04 395.99 72.8C393.51 71.52 391.59 69.74 390.23 67.46C388.91 65.14 388.25 62.42 388.25 59.3C388.25 56.26 388.89 53.6 390.17 51.32C391.45 49 393.23 47.2 395.51 45.92C397.83 44.6 400.45 43.94 403.37 43.94C405.49 43.94 407.41 44.3 409.13 45.02C410.85 45.7 412.33 46.7 413.57 48.02C414.81 49.3 415.75 50.88 416.39 52.76C417.03 54.6 417.35 56.66 417.35 58.94C417.35 59.7 417.11 60.28 416.63 60.68C416.15 61.04 415.45 61.22 414.53 61.22H395.69V56.54H410.81L409.85 57.38C409.85 55.74 409.61 54.38 409.13 53.3C408.65 52.18 407.95 51.34 407.03 50.78C406.15 50.22 405.05 49.94 403.73 49.94C402.25 49.94 400.99 50.28 399.95 50.96C398.91 51.64 398.11 52.62 397.55 53.9C396.99 55.18 396.71 56.72 396.71 58.52V59C396.71 62.04 397.41 64.28 398.81 65.72C400.25 67.16 402.37 67.88 405.17 67.88C406.13 67.88 407.23 67.76 408.47 67.52C409.71 67.28 410.87 66.9 411.95 66.38C412.87 65.94 413.69 65.8 414.41 65.96C415.13 66.08 415.69 66.4 416.09 66.92C416.49 67.44 416.71 68.04 416.75 68.72C416.83 69.4 416.69 70.08 416.33 70.76C415.97 71.4 415.37 71.94 414.53 72.38C413.17 73.14 411.63 73.7 409.91 74.06C408.23 74.46 406.59 74.66 404.99 74.66ZM426.4 74.54C424.92 74.54 423.78 74.14 422.98 73.34C422.22 72.54 421.84 71.4 421.84 69.92V48.62C421.84 47.14 422.22 46.02 422.98 45.26C423.78 44.46 424.88 44.06 426.28 44.06C427.72 44.06 428.82 44.46 429.58 45.26C430.34 46.02 430.72 47.14 430.72 48.62V52.46L430.06 50.06C430.86 48.22 432.1 46.74 433.78 45.62C435.46 44.5 437.44 43.94 439.72 43.94C442 43.94 443.9 44.48 445.42 45.56C446.94 46.64 448.02 48.3 448.66 50.54H447.82C448.7 48.5 450.04 46.9 451.84 45.74C453.68 44.54 455.78 43.94 458.14 43.94C460.42 43.94 462.28 44.4 463.72 45.32C465.2 46.2 466.3 47.56 467.02 49.4C467.74 51.2 468.1 53.5 468.1 56.3V69.92C468.1 71.4 467.7 72.54 466.9 73.34C466.14 74.14 465.04 74.54 463.6 74.54C462.12 74.54 460.98 74.14 460.18 73.34C459.42 72.54 459.04 71.4 459.04 69.92V56.6C459.04 54.64 458.72 53.22 458.08 52.34C457.48 51.42 456.44 50.96 454.96 50.96C453.24 50.96 451.9 51.56 450.94 52.76C449.98 53.96 449.5 55.66 449.5 57.86V69.92C449.5 71.4 449.1 72.54 448.3 73.34C447.54 74.14 446.44 74.54 445 74.54C443.56 74.54 442.44 74.14 441.64 73.34C440.84 72.54 440.44 71.4 440.44 69.92V56.6C440.44 54.64 440.12 53.22 439.48 52.34C438.88 51.42 437.84 50.96 436.36 50.96C434.64 50.96 433.3 51.56 432.34 52.76C431.38 53.96 430.9 55.66 430.9 57.86V69.92C430.9 73 429.4 74.54 426.4 74.54Z" fill="black"/>
</svg>
