<svg width="343" height="63" viewBox="0 0 343 63" fill="none" xmlns="http://www.w3.org/2000/svg">
<g clip-path="url(#clip0_1675_288)">
<mask id="mask0_1675_288" style="mask-type:luminance" maskUnits="userSpaceOnUse" x="295" y="-11" width="48" height="74">
<path d="M295.667 -11H342.333V62.3333H295.667V-11Z" fill="white"/>
</mask>
<g mask="url(#mask0_1675_288)">
<mask id="mask1_1675_288" style="mask-type:luminance" maskUnits="userSpaceOnUse" x="296" y="-12" width="50" height="74">
<path d="M299.943 -11.542L345.698 -9.0472L341.849 61.5778L296.094 59.083L299.943 -11.542Z" fill="white"/>
</mask>
<g mask="url(#mask1_1675_288)">
<mask id="mask2_1675_288" style="mask-type:luminance" maskUnits="userSpaceOnUse" x="207" y="-17" width="140" height="86">
<path d="M211.734 -16.3496L346.021 -9.0319L341.792 68.5566L207.505 61.2389L211.734 -16.3496Z" fill="white"/>
</mask>
<g mask="url(#mask2_1675_288)">
<path d="M262.354 15.0458C262.297 14.8322 262.25 14.4156 262.234 14.0666C262.224 13.0249 262.365 11.6447 262.729 10.0666C264.458 2.48849 270.516 -9.32922 282.276 -6.12088C290.375 -3.90734 291.557 2.44161 293.078 9.53537C293.437 11.2541 294.417 12.9729 294.495 14.7489C294.5 15.2697 294.208 17.4729 294.286 18.5874C294.349 19.3583 294.63 19.8947 294.859 20.1499C295.021 20.3322 295.849 21.0718 297.062 20.4781C298.062 19.9729 302.562 16.8895 303.026 16.6708C306.807 14.7593 311.839 14.7906 315.729 16.5979C317.521 17.426 318.958 19.1031 320.026 21.1031C321.698 24.2124 322.422 28.1083 321.776 30.9885C321.599 31.7385 320.906 32.9885 320.641 34.0458C320.453 34.9052 320.479 35.7072 320.76 36.3479C321.036 36.952 321.437 37.2854 321.875 37.4468C322.25 37.6083 322.698 37.6291 323.193 37.5197C323.859 37.3479 324.88 36.4677 325.208 36.1708C326.302 35.1916 328.135 33.9729 329.969 33.5145C330.88 33.2854 331.823 33.202 332.594 33.6916C333.698 34.4104 334.734 35.7541 335.687 37.4364C337.203 40.1552 338.359 43.7281 338.771 47.0458C338.984 48.827 338.995 50.5302 338.672 52.0041C338.432 53.2385 337.958 54.327 337.156 55.0458C336.458 55.6656 336.401 56.7385 337.026 57.4312C337.646 58.1239 338.719 58.1864 339.411 57.5614C341.818 55.3687 342.635 51.176 342.089 46.6031C341.635 42.827 340.328 38.8374 338.589 35.7541C337.354 33.5354 335.891 31.7906 334.38 30.8427C332.839 29.8531 330.969 29.7541 329.104 30.2072C327.63 30.577 326.167 31.327 324.906 32.1291C324.948 31.9937 324.99 31.8531 325.036 31.7177C325.854 28.1187 325.042 23.3218 322.958 19.4937C321.542 16.8479 319.51 14.6552 317.109 13.5145C312.344 11.2802 306.13 11.2854 301.495 13.6343C301.245 13.7645 299.339 14.9781 297.755 16.0041C297.792 15.3427 297.859 14.7906 297.833 14.5458C297.734 12.5666 296.766 10.6708 296.349 8.77495C294.547 0.415574 292.719 -6.79797 283.115 -9.40734C269.099 -13.2251 261.427 0.274948 259.37 9.29578C258.729 12.1395 258.635 14.5302 258.979 15.8322C259.297 17.0302 259.958 17.6552 260.635 17.8999C261.521 18.2281 262.484 17.7906 262.807 16.9104C263.156 16.2697 262.922 15.4937 262.354 15.0458ZM236.495 30.5718C231.005 28.2229 224.937 28.7281 219.411 31.551C212.448 35.1291 208.573 43.8739 208.75 51.4468C208.776 52.8739 209.187 54.2489 209.562 55.5875C209.854 56.6083 210.146 57.6343 210.088 58.7385C210.036 59.676 210.755 60.4781 211.687 60.5302C212.625 60.577 213.427 59.8583 213.479 58.926C213.557 57.4729 213.219 56.0666 212.807 54.6864C212.516 53.5979 212.161 52.5354 212.12 51.3895C211.979 44.9937 215.094 37.5614 220.943 34.5822C226.37 31.7906 232.448 31.6708 237.573 34.9677C238.276 35.426 239.312 36.801 239.312 36.801C239.833 37.452 240.76 37.6447 241.474 37.2281C242.193 36.8166 242.521 35.8999 242.182 35.1187C242.182 35.1187 241.354 33.1291 240.74 32.2593C239.646 30.7072 239.516 28.6552 239.833 26.5874C240.406 23.0822 242.375 19.4416 244.333 17.2906C247.578 13.7177 252.141 12.7854 256.463 14.9312C257.609 15.5145 257.818 16.1499 258.213 16.5562C258.771 17.1395 259.474 17.6291 260.995 17.7489C261.927 17.8322 262.76 17.1499 262.812 16.2124C262.896 15.2802 262.213 14.4833 261.281 14.3947C260.693 14.327 260.562 14.1499 260.37 13.8947C260.24 13.7124 260.078 13.5302 259.917 13.3166C259.49 12.8427 258.927 12.3583 257.979 11.8895C252.24 9.04578 246.172 10.2385 241.854 15.0041C239.526 17.5822 237.213 21.8635 236.5 26.0249C236.276 27.6083 236.229 29.1343 236.495 30.5718ZM213.797 61.3375C215.318 61.4208 216.896 61.0875 218.427 61.0666C221.479 61.025 224.557 61.1968 227.646 61.2229C237.01 61.2489 246.286 62.8999 255.641 63.0979C262.604 63.2697 269.588 63.7541 276.588 63.8895C290.693 64.1395 305.036 62.525 319.167 62.3583C322.745 62.3114 326.12 61.452 329.354 60.6604C332.276 59.9156 335.021 59.1968 337.578 59.3375C338.51 59.3895 339.318 58.6656 339.365 57.7333C339.417 56.801 338.698 55.9989 337.766 55.9468C334.891 55.7906 331.802 56.5249 328.526 57.3531C325.573 58.0927 322.406 58.8895 319.146 58.9572C305.052 59.1239 290.703 60.7385 276.635 60.4937C269.667 60.3583 262.687 59.8739 255.724 59.702C246.333 59.4677 237.021 57.8479 227.656 57.8218C224.568 57.7958 221.458 57.6239 218.37 57.6656C216.911 57.6864 215.365 58.0197 213.948 57.9416C213.703 57.9312 213.115 57.9312 212.797 57.9833C212.521 58.0406 212.307 58.0979 212.167 58.1604C211.594 58.4416 211.365 58.8427 211.276 59.1864C211.156 59.5249 211.167 59.9104 211.286 60.2645C211.349 60.4416 211.552 61.1812 212.75 61.452C213.088 61.5406 213.443 61.4937 213.797 61.3375Z" fill="#10AAD1"/>
</g>
</g>
</g>
<path d="M2.86296 22.2293C2.36296 22.4793 1.96712 22.8491 1.68066 23.3699C1.30566 24.0314 0.993164 24.9272 0.784831 26.0262C0.534831 27.271 0.415039 28.8491 0.415039 30.797C0.415039 32.7502 0.493164 34.7606 0.701498 36.8387C0.888998 38.9116 1.15983 40.922 1.53483 42.8752C1.90462 44.8231 2.34212 46.422 2.84212 47.646C3.09212 48.3127 3.42025 48.9741 3.83691 49.6408C4.25358 50.3022 4.81087 50.7814 5.56087 51.0731C6.55566 51.4845 8.02962 51.6304 9.99837 51.5054C11.9723 51.4012 13.5661 51.297 14.8161 51.2137C16.8473 51.1356 18.8161 50.9481 20.7275 50.6981C22.639 50.4481 24.2119 50.1356 25.4567 49.7658C26.29 49.5158 26.9307 49.2658 27.4098 49.0158C28.113 48.6408 28.613 48.2085 28.9046 47.7085C29.3994 46.8595 29.5661 45.5939 29.4411 43.8908C29.3577 43.146 29.1963 42.5002 28.9046 41.9429C28.613 41.4012 28.1338 41.1304 27.4932 41.172C27.1807 41.2137 26.8265 41.2762 26.4359 41.3804C26.2484 41.4429 26.0609 41.5054 25.8942 41.5679C25.7275 41.6512 25.5609 41.6929 25.3942 41.7345C23.7796 42.2293 22.0348 42.646 20.1442 42.9793C18.2588 43.3127 16.3265 43.5366 14.3786 43.6824C13.8577 43.7241 13.4046 43.7658 13.0088 43.8074C12.613 43.8491 12.2588 43.8699 11.9515 43.8699C11.5348 42.5627 11.2223 41.2345 10.9723 39.9064C12.863 39.7606 14.7536 39.5106 16.6598 39.1408C18.5505 38.7866 19.7327 38.2866 20.1859 37.6668C20.5609 37.1668 20.7484 36.1095 20.7484 34.4897C20.7484 32.8752 20.1234 32.0627 18.8369 32.021C18.1963 32.021 17.0348 32.0835 15.3525 32.2502C13.6494 32.4168 11.889 32.6252 10.0609 32.8335C9.93587 31.2554 9.87337 29.5731 9.91504 27.8283C12.0765 27.4585 14.1911 27.2293 16.2432 27.146C18.2796 27.0627 20.4984 27.2085 22.8838 27.5835C23.2171 27.646 23.5713 27.7033 23.9463 27.7658C24.3161 27.8491 24.6702 27.8699 25.0452 27.8283C26.3317 27.7449 26.8265 26.7502 26.5609 24.8647C26.29 22.9741 25.9359 21.7293 25.4775 21.1512C25.0661 20.6512 24.5036 20.297 23.8005 20.0887C23.0921 19.8804 22.4098 19.7189 21.764 19.6147C19.2119 19.2606 16.3265 19.3022 13.1338 19.7606C9.93587 20.2137 7.19629 20.8179 4.93587 21.5627C4.58171 21.6877 4.23275 21.8127 3.87858 21.896C3.50358 21.9793 3.17025 22.1043 2.86296 22.2293Z" fill="#021733"/>
<path d="M45.4594 39.3703C44.1729 38.662 43.449 38.2245 43.3031 38.0839C41.4333 36.8756 41.1417 36.0683 42.4073 35.6308C43.0323 35.6308 43.5896 35.6724 44.1313 35.7141L45.1886 35.9849C45.8136 36.1099 46.4542 36.2766 47.1209 36.4433C47.7198 36.5891 48.199 36.5266 48.5323 36.2766C48.5323 36.2766 48.574 36.2558 48.6156 36.2141C48.9854 35.8808 49.1104 35.4068 48.9646 34.8235C48.8188 34.2401 48.6156 33.787 48.3656 33.4537C48.324 33.412 48.3031 33.3495 48.2615 33.3078L47.699 32.6464C47.3083 32.4797 46.975 32.2922 46.7042 32.1256C46.3917 32.0006 46.1625 31.8964 46.0427 31.8131C45.6261 31.6672 45.1677 31.5058 44.6521 31.3391C40.3761 30.9224 37.2615 31.5058 35.3136 33.0995C34.2146 34.0162 33.5063 35.0735 33.1729 36.2766C32.8448 37.5006 33.074 38.7245 33.9021 39.9276C34.2354 40.4485 35.5427 41.5058 37.824 43.0839C39.4021 44.1828 40.2719 44.8026 40.3969 44.9485L40.4386 45.0318C40.4386 45.0735 40.4594 45.0943 40.4802 45.0943C40.7302 45.5735 40.6469 45.9485 40.1886 46.2141C40.0219 46.2974 39.9177 46.3599 39.8552 46.3808C38.5271 46.6724 37.1365 46.4433 35.6469 45.7401C34.9802 45.4068 34.3813 45.011 33.8813 44.5578C33.8604 44.5578 33.8396 44.537 33.8188 44.5162C33.7771 44.5162 33.7563 44.4953 33.7354 44.4537C33.5271 44.287 33.2563 44.1203 32.9698 43.9745C32.6573 43.8287 32.4281 43.9537 32.2823 44.3287C32.1156 44.6776 32.0323 45.1151 32.0115 45.6568C31.9698 46.1933 31.949 46.6308 31.949 47.0058V47.1308C31.9698 47.4381 32.0948 47.7089 32.3031 47.9589C32.3031 47.9797 32.324 48.0006 32.3448 48.0214C32.3448 48.0422 32.3656 48.0631 32.4073 48.0631C32.4073 48.1047 32.4073 48.1256 32.4281 48.1256C32.4281 48.1464 32.449 48.1672 32.4906 48.1672C32.8865 48.6203 33.3604 49.037 33.9229 49.3703L36.7458 50.6776C37.1156 50.8235 37.5948 50.9485 38.1781 51.0526C38.1156 51.1776 38.8604 51.2974 40.4177 51.3808L40.4594 51.3391C41.7042 51.4016 42.9073 51.2974 44.0688 51.0526C45.2302 50.8026 46.2042 50.4068 47.0375 49.8287C48.2823 48.9537 49.1521 47.8756 49.6521 46.5891C50.1052 45.3235 50.1052 44.1828 49.6313 43.1672C49.1521 42.1464 48.3031 41.2558 47.1 40.511L46.975 40.4276L45.4594 39.3703Z" fill="#021733"/>
<path d="M69.3216 29.8652C68.2018 29.6152 67.0612 29.4902 65.8945 29.4902C64.7331 29.4902 63.6133 29.5944 62.4935 29.7611C61.1654 29.9694 59.7748 30.3392 58.3633 30.8809C56.931 31.4225 55.6654 32.2298 54.5456 33.3079C52.2852 35.4486 51.4987 38.1048 52.181 41.2767C52.5977 43.3548 53.4466 45.2194 54.7331 46.8809C55.4206 47.7923 56.207 48.584 57.0977 49.2038C57.9935 49.8288 58.9258 50.3444 59.9206 50.7194C61.1654 51.2142 62.4518 51.5059 63.8008 51.6309C64.7956 51.735 65.8164 51.735 66.8529 51.6517C67.8685 51.5684 68.8841 51.2559 69.8998 50.7194C70.2748 50.5319 70.6498 50.3027 71.0248 50.0319C71.5612 49.6621 72.1862 49.1204 72.9102 48.4173C73.6185 47.709 73.6393 46.985 72.9518 46.2559C71.7487 45.0319 70.5456 44.7819 69.3425 45.4902C68.1393 46.2142 66.9779 46.6309 65.8945 46.735C64.4675 46.8809 63.056 46.6725 61.6862 46.11C60.3164 45.5527 59.3998 44.6204 58.9675 43.334C58.3425 41.5892 58.3216 40.1986 58.9466 39.1621C59.5456 38.1257 60.4206 37.334 61.5404 36.8392C62.6602 36.3392 63.8633 36.0684 65.1498 36.0267C66.4362 35.985 67.4518 36.0684 68.2018 36.3184C68.5508 36.4434 68.905 36.5684 69.28 36.6934C69.655 36.8184 70.0248 36.8757 70.4206 36.8757C70.8373 36.8757 71.2904 36.485 71.7487 35.6934C72.0612 35.1569 72.2695 34.5527 72.3945 33.9329C72.4935 33.3079 72.556 32.6882 72.556 32.0632C72.556 31.5267 72.2279 31.0684 71.582 30.6725C71.0039 30.3392 70.2539 30.0736 69.3216 29.8652Z" fill="#021733"/>
<path d="M76.085 39.7819C75.3559 41.2351 75.0278 42.7924 75.1059 44.4955C75.1475 45.6986 75.3975 46.7351 75.8559 47.6257C76.2934 48.5632 76.9132 49.3288 77.7413 49.9069C78.5746 50.4903 79.4653 50.9486 80.46 51.2767C81.684 51.6934 82.9913 51.8601 84.4028 51.7559C85.7309 51.6309 86.9965 51.2351 88.158 50.5528C89.3246 49.8913 90.3611 49.058 91.2725 48.084C91.8767 47.4382 92.4548 46.7142 93.0382 45.8861C93.5955 45.0528 94.033 44.2038 94.3246 43.334C94.7986 41.9017 94.9653 40.2819 94.8194 38.4747C94.6944 37.2715 94.4496 36.2559 94.033 35.4486C93.6371 34.7403 93.059 34.0997 92.309 33.5163C91.5434 32.933 90.7725 32.5215 90.0278 32.2924C88.408 31.8549 86.7309 31.8549 85.0278 32.3132C82.9913 32.8549 81.1892 33.808 79.6111 35.1986C79.4861 35.3028 79.2361 35.5319 78.8455 35.9017C77.8455 36.8549 76.9132 38.1622 76.085 39.7819ZM81.4809 42.6674C81.4809 40.8392 82.309 40.0736 83.9705 40.3653C85.6267 40.6569 86.6684 41.5059 87.1215 42.9174C87.309 43.5372 87.3298 44.1413 87.184 44.7194C87.0382 45.3028 86.6475 45.7403 86.0017 46.0476C84.9653 46.5476 83.9705 46.3392 82.9705 45.3861C81.9757 44.4538 81.4809 43.5372 81.4809 42.6674Z" fill="#021733"/>
<path d="M104.82 25.3183C104.945 24.3027 104.82 23.6204 104.408 23.287C103.991 22.9537 103.429 22.7245 102.726 22.6412C102.226 22.5995 101.669 22.5787 101.044 22.6204C100.424 22.662 99.903 22.787 99.4446 22.9954C99.054 23.1829 98.7207 23.537 98.4707 24.0318C98.1373 24.636 97.8717 25.4641 97.6634 26.5422C97.4134 27.7037 97.2259 29.2402 97.1217 31.11C96.9967 32.9745 96.955 34.9485 96.9967 36.9797C97.0175 39.0162 97.1217 41.0058 97.2884 42.9172C97.455 44.8235 97.6842 46.4016 97.9967 47.6256C98.1373 48.2714 98.3457 48.9329 98.6373 49.5995C98.9082 50.2818 99.3196 50.8027 99.8821 51.136C100.174 51.3391 100.669 51.5058 101.377 51.6308C102.08 51.7766 102.809 51.8183 103.533 51.7766C104.262 51.735 104.903 51.5891 105.465 51.2975C106.002 51.0318 106.294 50.5735 106.294 49.9277C106.252 49.5787 106.189 49.2245 106.085 48.8495C105.96 48.5006 105.877 48.1464 105.82 47.8131C104.945 44.6204 104.471 40.9433 104.346 36.7766C104.221 32.6256 104.366 28.8079 104.82 25.3183Z" fill="#021733"/>
<path d="M115.53 43.1253C115.983 42.3128 116.567 41.7555 117.311 41.4638C118.041 41.1722 118.723 41.068 119.389 41.1722C120.051 41.2763 120.593 41.5472 121.025 41.9847C121.462 42.4378 121.629 42.9795 121.525 43.5992C121.4 44.1826 121.108 44.7399 120.676 45.2399C120.218 45.7607 119.572 46.1513 118.702 46.4013C117.311 46.818 116.317 46.5888 115.733 45.6774C115.134 44.7607 115.072 43.9117 115.53 43.1253ZM119.78 35.219C120.817 35.7138 121.421 36.1722 121.587 36.5888C121.733 37.0003 121.775 37.2711 121.733 37.3545C119.905 36.9378 118.202 36.8388 116.608 37.0003C114.988 37.1878 113.639 37.6878 112.52 38.4951C111.4 39.3284 110.65 39.9482 110.317 40.4065C109.988 40.8597 109.613 41.3597 109.238 41.9013C108.494 43.0211 108.119 44.2659 108.119 45.6357C108.119 46.6097 108.306 47.4586 108.681 48.1878C109.072 48.9534 109.655 49.5992 110.421 50.094C111.171 50.594 112.02 51.0107 112.931 51.2972C114.119 51.7138 115.363 51.9013 116.692 51.8597C117.978 51.818 119.181 51.5472 120.322 51.0524C120.817 50.844 121.442 50.4482 122.186 49.8909C122.27 50.1774 122.395 50.469 122.561 50.7607C122.77 51.1774 123.103 51.5055 123.535 51.7347C123.764 51.8597 124.16 52.0263 124.718 52.193C125.259 52.3805 125.863 52.4013 126.525 52.2763C127.192 52.1513 127.666 51.943 127.999 51.6305C128.311 51.3388 128.478 50.9899 128.478 50.594C128.478 50.3857 128.457 50.1565 128.374 49.9274C128.291 49.7242 128.228 49.5159 128.166 49.3076C127.541 48.0628 127.233 46.193 127.254 43.6826C127.254 41.4013 127.311 39.4326 127.436 37.7711C127.541 36.1097 127.171 34.6565 126.337 33.4326C125.509 32.2295 124.639 31.4222 123.723 31.0263C122.811 30.6305 121.9 30.3388 120.942 30.1357C119.718 29.8857 118.473 29.7607 117.207 29.7815C116.254 29.8232 115.301 29.9065 114.343 30.0524C113.389 30.219 112.478 30.5263 111.608 30.9847C111.275 31.1513 110.942 31.3597 110.629 31.5888C110.176 31.917 109.655 32.3753 109.072 32.9742C108.494 33.5992 108.41 34.3232 108.806 35.1774C109.176 36.0263 109.843 36.5472 110.754 36.7138C111.666 36.8961 112.478 36.7347 113.181 36.193C113.889 35.6513 114.738 35.3024 115.754 35.1149C117.082 34.8857 118.41 34.9274 119.78 35.219Z" fill="#021733"/>
<path d="M147.563 42.0059C147.563 40.985 147.834 40.2819 148.412 39.8652C148.975 39.4538 149.615 39.308 150.345 39.3913C151.048 39.4694 151.756 39.7819 152.459 40.3027C153.147 40.8184 153.621 41.485 153.871 42.2715C154.079 43.0007 154.121 43.683 153.975 44.3288C153.808 44.9902 153.376 45.4902 152.647 45.8444C151.485 46.4225 150.365 46.1934 149.246 45.1152C148.126 44.0371 147.563 43.0007 147.563 42.0059ZM155.949 49.6205C156.074 49.9902 156.214 50.3444 156.402 50.7194C156.652 51.2559 157.006 51.6725 157.501 51.9434C157.751 52.11 158.209 52.235 158.85 52.3392C159.496 52.4434 160.136 52.485 160.803 52.4434C161.464 52.4225 162.048 52.2975 162.548 52.0892C163.043 51.8809 163.272 51.5059 163.272 50.9902C163.251 50.7194 163.188 50.4486 163.105 50.1569C163.001 49.8705 162.918 49.5996 162.855 49.3288C162.069 46.8184 161.631 43.933 161.506 40.6569C161.381 37.3757 161.36 33.2246 161.423 28.2038C161.589 25.2975 161.485 23.7246 161.115 23.4538C160.74 23.183 160.22 23.0163 159.6 22.933C159.142 22.8913 158.647 22.8913 158.084 22.9121C157.522 22.9538 157.048 23.058 156.652 23.2246C156.277 23.3705 155.99 23.6413 155.761 24.0319C155.636 24.2611 155.657 26.7298 155.865 31.4225C154.371 31.0892 152.813 31.1309 151.194 31.5684C149.121 32.1257 147.251 33.1205 145.636 34.5736C145.386 34.8236 145.115 35.0736 144.865 35.3236C144.246 35.9225 143.725 36.5684 143.267 37.2507C142.813 37.9382 142.397 38.6413 142.022 39.3705C141.277 40.86 140.923 42.5215 141.006 44.308C141.048 45.5736 141.298 46.6725 141.751 47.584C142.209 48.5423 142.876 49.3288 143.725 49.9486C144.574 50.5736 145.511 51.0736 146.506 51.4017C147.793 51.86 149.162 52.0267 150.574 51.9017C151.944 51.7767 153.23 51.3392 154.433 50.6361C154.97 50.3444 155.47 49.9902 155.949 49.6205Z" fill="#021733"/>
<path d="M172.61 43.1253C173.063 42.3128 173.646 41.7555 174.391 41.4638C175.12 41.1722 175.803 41.068 176.469 41.1722C177.131 41.2763 177.672 41.5472 178.105 41.9847C178.542 42.4378 178.709 42.9795 178.605 43.5992C178.48 44.1826 178.188 44.7399 177.756 45.2399C177.297 45.7607 176.651 46.1513 175.782 46.4013C174.391 46.818 173.396 46.5888 172.813 45.6774C172.214 44.7607 172.151 43.9117 172.61 43.1253ZM176.86 35.219C177.896 35.7138 178.5 36.1722 178.667 36.5888C178.813 37.0003 178.855 37.2711 178.813 37.3545C176.985 36.9378 175.282 36.8388 173.688 37.0003C172.068 37.1878 170.719 37.6878 169.599 38.4951C168.48 39.3284 167.73 39.9482 167.396 40.4065C167.068 40.8597 166.693 41.3597 166.318 41.9013C165.573 43.0211 165.198 44.2659 165.198 45.6357C165.198 46.6097 165.386 47.4586 165.761 48.1878C166.151 48.9534 166.735 49.5992 167.5 50.094C168.25 50.594 169.099 51.0107 170.011 51.2972C171.198 51.7138 172.443 51.9013 173.771 51.8597C175.058 51.818 176.261 51.5472 177.401 51.0524C177.896 50.844 178.521 50.4482 179.266 49.8909C179.349 50.1774 179.474 50.469 179.641 50.7607C179.849 51.1774 180.183 51.5055 180.615 51.7347C180.844 51.8597 181.24 52.0263 181.797 52.193C182.339 52.3805 182.943 52.4013 183.605 52.2763C184.271 52.1513 184.745 51.943 185.079 51.6305C185.391 51.3388 185.558 50.9899 185.558 50.594C185.558 50.3857 185.537 50.1565 185.454 49.9274C185.37 49.7242 185.308 49.5159 185.245 49.3076C184.62 48.0628 184.313 46.193 184.334 43.6826C184.334 41.4013 184.391 39.4326 184.516 37.7711C184.62 36.1097 184.25 34.6565 183.417 33.4326C182.589 32.2295 181.719 31.4222 180.803 31.0263C179.891 30.6305 178.98 30.3388 178.021 30.1357C176.797 29.8857 175.553 29.7607 174.287 29.7815C173.334 29.8232 172.381 29.9065 171.422 30.0524C170.469 30.219 169.558 30.5263 168.688 30.9847C168.355 31.1513 168.021 31.3597 167.709 31.5888C167.256 31.917 166.735 32.3753 166.151 32.9742C165.573 33.5992 165.49 34.3232 165.886 35.1774C166.256 36.0263 166.922 36.5472 167.834 36.7138C168.745 36.8961 169.558 36.7347 170.261 36.193C170.969 35.6513 171.818 35.3024 172.834 35.1149C174.162 34.8857 175.49 34.9274 176.86 35.219Z" fill="#021733"/>
<path d="M206.013 33.3284L205.68 33.12C205.888 32.1253 205.805 31.443 205.409 31.0888C204.997 30.7555 204.435 30.5263 203.69 30.443C203.19 30.4013 202.612 30.3805 201.966 30.4221C201.305 30.4638 200.742 30.6096 200.242 30.818C199.831 31.0055 199.456 31.3388 199.143 31.8336C198.482 33.4742 198.086 34.844 197.982 35.9221C197.878 37.0211 197.815 38.0003 197.794 38.8284C197.753 39.6565 197.753 41.0471 197.794 42.9586C197.836 44.8648 197.961 46.443 198.19 47.6878C198.315 48.3544 198.482 49.0159 198.711 49.6825C198.935 50.3648 199.331 50.8857 199.872 51.2138C200.159 51.4221 200.659 51.5888 201.409 51.7138C202.154 51.8596 202.898 51.9013 203.669 51.8596C204.414 51.818 205.101 51.6721 205.7 51.3805C206.284 51.1148 206.617 50.6565 206.654 49.9898C206.654 49.6617 206.617 49.3075 206.534 48.9325C206.45 48.5628 206.388 48.2086 206.305 47.8753C205.784 45.344 205.638 43.4325 205.846 42.1044C206.325 39.9065 207.112 38.745 208.211 38.62C209.289 38.495 210.268 39.12 211.096 40.469C211.346 40.9221 211.575 41.4846 211.742 42.1253C211.987 43.0836 212.154 44.12 212.237 45.2398C212.32 46.3596 212.258 47.3961 212.091 48.3961C212.029 48.6617 211.987 48.9534 211.945 49.245C211.904 49.5575 211.924 49.8284 212.049 50.0732C212.091 50.2607 212.216 50.4065 212.383 50.5315C212.716 50.8648 213.357 51.1773 214.294 51.4638C215.206 51.7555 215.992 51.8596 216.659 51.7346C217.034 51.6721 217.32 51.443 217.508 51.0732C218.029 50.0107 218.216 48.5003 218.091 46.5263C217.945 44.5784 217.779 43.0419 217.57 41.9221C217.258 40.344 216.742 38.7867 215.992 37.2294C215.247 35.6721 214.169 34.4273 212.758 33.4742C211.409 32.6044 210.122 32.2086 208.898 32.3336C207.674 32.4586 206.716 32.7919 206.013 33.3284Z" fill="#021733"/>
<path d="M231.345 49.1831L231.303 49.4956C231.017 50.5112 231.079 51.1987 231.449 51.5269C231.824 51.881 232.387 52.0894 233.131 52.1727C233.631 52.2352 234.21 52.2352 234.876 52.1935C235.517 52.1519 236.1 52.0269 236.616 51.7977C237.032 51.631 237.428 51.2769 237.782 50.7821C238.173 50.1779 238.465 49.6831 238.652 49.2873C238.819 48.8914 239.048 47.6675 239.293 45.6154C239.543 43.5789 239.73 41.5894 239.814 39.6779C239.897 37.7716 239.876 36.1727 239.73 34.9279C239.647 34.2821 239.522 33.6206 239.335 32.9331C239.131 32.2716 238.777 31.7508 238.277 31.4019C237.986 31.2144 237.491 31.0477 236.762 30.9019C236.017 30.7769 235.267 30.7144 234.522 30.756C233.756 30.7977 233.069 30.9644 232.449 31.2352C231.824 31.5269 231.491 31.98 231.407 32.6258C231.387 32.9748 231.407 33.3289 231.47 33.7039C231.512 34.0789 231.574 34.4071 231.616 34.7404C231.949 37.2716 231.907 39.3914 231.449 41.0894C230.996 42.7925 230.204 43.6831 229.126 43.8081C228.027 43.9331 227.116 43.3706 226.387 42.1466C226.137 41.6935 225.954 41.1519 225.829 40.4904C225.621 39.5321 225.517 38.5164 225.517 37.3966C225.517 36.2769 225.642 35.2196 225.892 34.2248C225.933 33.9748 225.996 33.6831 226.079 33.3706C226.137 33.0789 226.116 32.7925 226.017 32.5425C225.975 32.3758 225.871 32.2091 225.725 32.0841C225.392 31.7508 224.772 31.4435 223.855 31.1519C222.944 30.8602 222.173 30.7769 221.512 30.881C221.116 30.9644 220.829 31.1727 220.642 31.5477C220.038 32.6258 219.746 34.1414 219.746 36.0894C219.746 38.0633 219.829 39.5946 219.975 40.6987C220.183 42.2716 220.6 43.8498 221.241 45.4071C221.887 46.9644 222.902 48.2091 224.272 49.1414C225.558 50.0321 226.72 50.4696 227.798 50.4279C229.168 50.5112 230.35 50.0946 231.345 49.1831Z" fill="#021733"/>
<path d="M246.886 32.4591C246.578 31.7508 246.203 31.4018 245.787 31.3602C245.375 31.3393 244.896 31.4643 244.354 31.7091C243.985 31.9174 243.568 32.1674 243.151 32.4591C242.719 32.7716 242.386 33.0997 242.136 33.4331C241.927 33.7664 241.844 34.1206 241.865 34.532C241.865 35.032 241.99 35.6727 242.24 36.506C242.781 38.2456 243.964 40.5737 245.787 43.4956C247.615 46.4227 249.255 48.5424 250.662 49.8289C251.308 50.4487 252.302 50.907 253.63 51.2352C254.959 51.5685 256.078 51.6102 256.953 51.3602C257.427 51.2143 257.844 50.9279 258.177 50.4695C258.505 50.0112 258.797 49.5789 259.047 49.1206C259.917 47.4174 260.75 44.8862 261.516 41.4852C262.266 38.1049 262.636 35.5112 262.594 33.6831C262.552 32.8966 262.469 32.2299 262.308 31.6883C262.183 31.3185 261.974 31.006 261.662 30.7768C261.308 30.5268 260.875 30.3393 260.375 30.1987C259.875 30.0529 259.422 29.9487 259.026 29.907C258.406 29.8654 257.906 29.9279 257.531 30.0945C257.141 30.2612 256.933 30.7352 256.891 31.4852C256.766 33.4747 256.453 35.6102 255.995 37.8549C255.542 40.1154 254.938 42.2299 254.193 44.2247C252.719 42.5633 251.349 40.6987 250.063 38.5789C248.776 36.4643 247.719 34.4279 246.886 32.4591Z" fill="#021733"/>
<path d="M272.574 43.1876C279.548 42.5001 283.407 42.0678 284.152 41.8595C284.881 41.6512 285.397 41.172 285.709 40.4064C286.001 39.6355 285.917 38.2241 285.459 36.1512C284.985 34.0991 283.761 32.5626 281.808 31.547C279.839 30.5262 277.907 30.1355 276.001 30.3803C274.089 30.6303 272.428 31.0262 271.058 31.547C269.688 32.0626 268.443 32.8335 267.344 33.8699C265.438 35.9845 264.667 38.5574 265.084 41.5887C265.501 43.5783 266.308 45.4064 267.553 47.0262C268.219 47.9168 268.985 48.6616 269.855 49.2866C270.73 49.9064 271.621 50.3855 272.574 50.7397C273.777 51.2345 275.042 51.5262 276.371 51.6303C277.329 51.7345 278.324 51.7345 279.318 51.6512C280.313 51.5678 281.209 51.3387 282.016 50.9897C282.824 50.6564 283.928 49.8908 285.334 48.7241C286.746 47.5626 286.933 46.4637 285.917 45.4064C284.881 44.3491 283.636 44.3074 282.183 45.2814C280.709 46.2553 279.443 46.797 278.386 46.8803C276.996 47.0262 275.792 46.8803 274.756 46.422C273.714 45.9845 272.803 45.1147 272.058 43.8074C271.975 43.6199 272.162 43.4116 272.574 43.1876ZM277.1 35.6512C278.839 35.7762 279.943 36.5262 280.417 37.8751C274.98 38.5991 272.183 38.8699 272.037 38.6824C271.871 38.5158 271.829 38.3699 271.891 38.2658C272.1 37.8126 272.574 37.2293 273.344 36.5262C274.11 35.8178 275.355 35.5314 277.1 35.6512Z" fill="#021733"/>
<path d="M308.492 42.0683C308.346 41.0475 308.408 40.2193 308.7 39.5943C308.971 38.9745 309.549 38.662 310.445 38.6412C311.523 38.537 312.476 39.0995 313.304 40.3027C313.554 40.761 313.783 41.3183 313.971 41.9641C314.2 42.9172 314.346 43.9537 314.429 45.0735C314.507 46.1933 314.45 47.235 314.262 48.2297C314.2 48.5006 314.137 48.787 314.096 49.0787C314.054 49.3912 314.096 49.662 314.221 49.9068C314.262 50.0943 314.367 50.2402 314.528 50.3652C314.861 50.6985 315.507 51.011 316.439 51.2975C317.351 51.5891 318.143 51.6933 318.804 51.5683C319.179 51.5058 319.471 51.2766 319.658 50.9068C320.174 49.8495 320.382 48.3339 320.257 46.36C320.132 44.412 319.986 42.8756 319.778 41.7558C319.492 40.1777 318.971 38.6204 318.247 37.0631C317.497 35.511 316.439 34.261 315.028 33.3079C313.679 32.4381 312.393 31.9589 311.169 31.9172C309.945 31.9172 308.825 32.2089 307.83 32.7922C306.809 33.3704 306.023 34.1204 305.481 34.9902C305.195 34.6152 304.59 34.1204 303.637 33.4745C302.288 32.6047 300.981 32.1672 299.736 32.2089C298.554 32.1256 297.533 32.5631 296.684 33.5162L296.663 33.412C296.872 32.4172 296.788 31.7297 296.393 31.3808C296.002 31.0475 295.439 30.8183 294.695 30.735C294.174 30.6933 293.59 30.6725 292.95 30.7141C292.304 30.7558 291.747 30.9016 291.247 31.11C290.835 31.2975 290.46 31.6256 290.148 32.1256C289.731 32.7089 289.403 33.6204 289.153 34.8443C288.903 36.0891 288.736 37.2714 288.674 38.3912C288.611 39.511 288.59 41.0475 288.611 42.9589C288.632 44.8652 288.757 46.4433 288.986 47.6881C289.09 48.3547 289.257 49.0162 289.486 49.6829C289.71 50.3652 290.106 50.886 290.648 51.2141C290.939 51.4225 291.434 51.5891 292.184 51.7141C292.908 51.86 293.653 51.9016 294.424 51.86C295.169 51.8183 295.856 51.6725 296.455 51.3808C297.059 51.1152 297.393 50.6568 297.434 49.9902C297.434 49.662 297.393 49.3079 297.309 48.9329C297.226 48.5631 297.163 48.2089 297.101 47.8756C296.601 45.3443 296.455 43.4329 296.663 42.1047C297.163 40.0318 297.971 38.9537 299.049 38.8287C300.127 38.7037 301.085 39.2662 301.913 40.4693C302.184 40.9225 302.413 41.485 302.58 42.1256C302.804 43.0839 302.887 44.4329 302.846 46.1725C302.804 47.9172 302.762 48.9537 302.721 49.2454C302.684 49.5579 302.705 49.8287 302.825 50.0735C302.867 50.261 302.971 50.4068 303.137 50.5318C303.471 50.8652 304.111 51.1777 305.049 51.4641C305.96 51.7558 306.768 51.86 307.434 51.735C307.809 51.6725 308.054 51.235 308.2 50.4485C308.346 49.662 308.471 48.3131 308.554 46.4225C308.637 44.537 308.617 43.0839 308.492 42.0683Z" fill="#021733"/>
</g>
<defs>
<clipPath id="clip0_1675_288">
<rect width="343" height="73.3333" fill="white" transform="translate(0 -11)"/>
</clipPath>
</defs>
</svg>
